<mxfile host="app.diagrams.net" modified="2023-03-26T18:46:26.141Z" agent="Mozilla/5.0 (Windows NT 10.0; Win64; x64; rv:109.0) Gecko/20100101 Firefox/111.0" etag="0m3wWXY2mBr7bHbqaDaH" version="21.1.1" type="device">
  <diagram name="Σελίδα-1" id="hfZijqoAA24UyClrSjuV">
    <mxGraphModel dx="1707" dy="427" grid="1" gridSize="10" guides="1" tooltips="1" connect="1" arrows="1" fold="1" page="1" pageScale="1" pageWidth="827" pageHeight="1169" math="0" shadow="0">
      <root>
        <mxCell id="0" />
        <mxCell id="1" parent="0" />
        <mxCell id="enI1zl7nr-y_ysx5LxIe-6" style="edgeStyle=orthogonalEdgeStyle;rounded=0;orthogonalLoop=1;jettySize=auto;html=1;exitX=0.5;exitY=0;exitDx=0;exitDy=0;entryX=0.25;entryY=1;entryDx=0;entryDy=0;" parent="1" source="enI1zl7nr-y_ysx5LxIe-2" target="enI1zl7nr-y_ysx5LxIe-5" edge="1">
          <mxGeometry relative="1" as="geometry" />
        </mxCell>
        <mxCell id="enI1zl7nr-y_ysx5LxIe-2" value="Απλός χρήστης" style="swimlane;whiteSpace=wrap;html=1;startSize=30;" parent="1" vertex="1">
          <mxGeometry x="-770" y="160" width="170" height="80" as="geometry" />
        </mxCell>
        <mxCell id="enI1zl7nr-y_ysx5LxIe-7" style="edgeStyle=orthogonalEdgeStyle;rounded=0;orthogonalLoop=1;jettySize=auto;html=1;exitX=0.5;exitY=0;exitDx=0;exitDy=0;entryX=0.5;entryY=1;entryDx=0;entryDy=0;" parent="1" source="enI1zl7nr-y_ysx5LxIe-3" target="enI1zl7nr-y_ysx5LxIe-5" edge="1">
          <mxGeometry relative="1" as="geometry" />
        </mxCell>
        <mxCell id="enI1zl7nr-y_ysx5LxIe-3" value="Ξεναγός" style="swimlane;whiteSpace=wrap;html=1;" parent="1" vertex="1">
          <mxGeometry x="-585" y="160" width="170" height="80" as="geometry" />
        </mxCell>
        <mxCell id="enI1zl7nr-y_ysx5LxIe-8" style="edgeStyle=orthogonalEdgeStyle;rounded=0;orthogonalLoop=1;jettySize=auto;html=1;exitX=0.5;exitY=0;exitDx=0;exitDy=0;entryX=0.75;entryY=1;entryDx=0;entryDy=0;" parent="1" source="enI1zl7nr-y_ysx5LxIe-4" target="enI1zl7nr-y_ysx5LxIe-5" edge="1">
          <mxGeometry relative="1" as="geometry" />
        </mxCell>
        <mxCell id="enI1zl7nr-y_ysx5LxIe-4" value="Πολιτιστικός οργανισμός" style="swimlane;whiteSpace=wrap;html=1;" parent="1" vertex="1">
          <mxGeometry x="-400" y="160" width="170" height="80" as="geometry" />
        </mxCell>
        <mxCell id="enI1zl7nr-y_ysx5LxIe-5" value="Χρήστης" style="swimlane;whiteSpace=wrap;html=1;" parent="1" vertex="1">
          <mxGeometry x="-580" y="20" width="160" height="80" as="geometry">
            <mxRectangle x="310" y="140" width="140" height="30" as="alternateBounds" />
          </mxGeometry>
        </mxCell>
        <mxCell id="enI1zl7nr-y_ysx5LxIe-10" value="Ανάρτηση" style="swimlane;whiteSpace=wrap;html=1;fillColor=#ffffff;strokeColor=#000000;" parent="1" vertex="1">
          <mxGeometry x="283" y="20" width="160" height="80" as="geometry">
            <mxRectangle x="310" y="140" width="140" height="30" as="alternateBounds" />
          </mxGeometry>
        </mxCell>
        <mxCell id="enI1zl7nr-y_ysx5LxIe-18" style="edgeStyle=orthogonalEdgeStyle;rounded=0;orthogonalLoop=1;jettySize=auto;html=1;exitX=0.5;exitY=0;exitDx=0;exitDy=0;entryX=0.5;entryY=1;entryDx=0;entryDy=0;" parent="1" source="enI1zl7nr-y_ysx5LxIe-11" edge="1" target="enI1zl7nr-y_ysx5LxIe-10">
          <mxGeometry relative="1" as="geometry">
            <mxPoint x="290" y="100" as="targetPoint" />
          </mxGeometry>
        </mxCell>
        <mxCell id="enI1zl7nr-y_ysx5LxIe-11" value="Αγγελία εργασίας" style="swimlane;whiteSpace=wrap;html=1;" parent="1" vertex="1">
          <mxGeometry x="-140" y="260" width="183" height="90" as="geometry" />
        </mxCell>
        <mxCell id="enI1zl7nr-y_ysx5LxIe-19" style="edgeStyle=orthogonalEdgeStyle;rounded=0;orthogonalLoop=1;jettySize=auto;html=1;exitX=0.5;exitY=0;exitDx=0;exitDy=0;entryX=0.5;entryY=1;entryDx=0;entryDy=0;" parent="1" source="enI1zl7nr-y_ysx5LxIe-12" target="enI1zl7nr-y_ysx5LxIe-10" edge="1">
          <mxGeometry relative="1" as="geometry">
            <mxPoint x="363" y="110" as="targetPoint" />
          </mxGeometry>
        </mxCell>
        <mxCell id="enI1zl7nr-y_ysx5LxIe-12" value="Ξενάγηση" style="swimlane;whiteSpace=wrap;html=1;" parent="1" vertex="1">
          <mxGeometry x="60" y="300" width="183" height="90" as="geometry" />
        </mxCell>
        <mxCell id="enI1zl7nr-y_ysx5LxIe-20" style="edgeStyle=orthogonalEdgeStyle;rounded=0;orthogonalLoop=1;jettySize=auto;html=1;exitX=0.5;exitY=0;exitDx=0;exitDy=0;entryX=0.5;entryY=1;entryDx=0;entryDy=0;" parent="1" source="enI1zl7nr-y_ysx5LxIe-13" target="enI1zl7nr-y_ysx5LxIe-10" edge="1">
          <mxGeometry relative="1" as="geometry">
            <mxPoint x="360" y="100" as="targetPoint" />
          </mxGeometry>
        </mxCell>
        <mxCell id="enI1zl7nr-y_ysx5LxIe-13" value="Virtual Tour" style="swimlane;whiteSpace=wrap;html=1;" parent="1" vertex="1">
          <mxGeometry x="271.5" y="300" width="183" height="90" as="geometry" />
        </mxCell>
        <mxCell id="enI1zl7nr-y_ysx5LxIe-23" style="edgeStyle=orthogonalEdgeStyle;rounded=0;orthogonalLoop=1;jettySize=auto;html=1;exitX=0.5;exitY=0;exitDx=0;exitDy=0;entryX=0.5;entryY=1;entryDx=0;entryDy=0;" parent="1" source="enI1zl7nr-y_ysx5LxIe-14" target="enI1zl7nr-y_ysx5LxIe-10" edge="1">
          <mxGeometry relative="1" as="geometry">
            <mxPoint x="390" y="90" as="targetPoint" />
          </mxGeometry>
        </mxCell>
        <mxCell id="enI1zl7nr-y_ysx5LxIe-14" value="Event" style="swimlane;whiteSpace=wrap;html=1;" parent="1" vertex="1">
          <mxGeometry x="480" y="300" width="183" height="90" as="geometry" />
        </mxCell>
        <mxCell id="enI1zl7nr-y_ysx5LxIe-24" style="edgeStyle=orthogonalEdgeStyle;rounded=0;orthogonalLoop=1;jettySize=auto;html=1;exitX=0.5;exitY=0;exitDx=0;exitDy=0;entryX=0.5;entryY=1;entryDx=0;entryDy=0;" parent="1" source="enI1zl7nr-y_ysx5LxIe-15" edge="1" target="enI1zl7nr-y_ysx5LxIe-10">
          <mxGeometry relative="1" as="geometry">
            <mxPoint x="360" y="120" as="targetPoint" />
          </mxGeometry>
        </mxCell>
        <mxCell id="enI1zl7nr-y_ysx5LxIe-15" value="Quiz" style="swimlane;whiteSpace=wrap;html=1;" parent="1" vertex="1">
          <mxGeometry x="670" y="280" width="183" height="90" as="geometry" />
        </mxCell>
        <mxCell id="enI1zl7nr-y_ysx5LxIe-16" value="Πληρωμή" style="swimlane;whiteSpace=wrap;html=1;" parent="1" vertex="1">
          <mxGeometry x="-776.5" y="340" width="183" height="90" as="geometry" />
        </mxCell>
        <mxCell id="enI1zl7nr-y_ysx5LxIe-17" value="Αξιόγηση" style="swimlane;whiteSpace=wrap;html=1;" parent="1" vertex="1">
          <mxGeometry x="390" y="560" width="183" height="90" as="geometry" />
        </mxCell>
        <mxCell id="enI1zl7nr-y_ysx5LxIe-25" value="" style="endArrow=diamondThin;endFill=1;endSize=24;html=1;rounded=0;entryX=0.5;entryY=1;entryDx=0;entryDy=0;" parent="1" target="enI1zl7nr-y_ysx5LxIe-13" edge="1">
          <mxGeometry width="160" relative="1" as="geometry">
            <mxPoint x="363" y="480" as="sourcePoint" />
            <mxPoint x="330" y="390" as="targetPoint" />
            <Array as="points">
              <mxPoint x="363" y="480" />
            </Array>
          </mxGeometry>
        </mxCell>
        <mxCell id="enI1zl7nr-y_ysx5LxIe-26" value="" style="endArrow=diamondThin;endFill=1;endSize=24;html=1;rounded=0;entryX=0.75;entryY=1;entryDx=0;entryDy=0;" parent="1" target="enI1zl7nr-y_ysx5LxIe-12" edge="1">
          <mxGeometry width="160" relative="1" as="geometry">
            <mxPoint x="200" y="480" as="sourcePoint" />
            <mxPoint x="230" y="390" as="targetPoint" />
            <Array as="points" />
          </mxGeometry>
        </mxCell>
        <mxCell id="enI1zl7nr-y_ysx5LxIe-27" value="" style="endArrow=diamondThin;endFill=1;endSize=24;html=1;rounded=0;" parent="1" edge="1">
          <mxGeometry width="160" relative="1" as="geometry">
            <mxPoint x="520" y="480" as="sourcePoint" />
            <mxPoint x="520" y="390" as="targetPoint" />
            <Array as="points" />
          </mxGeometry>
        </mxCell>
        <mxCell id="enI1zl7nr-y_ysx5LxIe-37" value="Αίτηση εργασίας" style="swimlane;whiteSpace=wrap;html=1;" parent="1" vertex="1">
          <mxGeometry x="-183" y="440" width="183" height="90" as="geometry" />
        </mxCell>
        <mxCell id="enI1zl7nr-y_ysx5LxIe-39" value="" style="endArrow=diamondThin;endFill=1;endSize=24;html=1;rounded=0;exitX=0.47;exitY=-0.022;exitDx=0;exitDy=0;exitPerimeter=0;" parent="1" source="enI1zl7nr-y_ysx5LxIe-37" edge="1">
          <mxGeometry width="160" relative="1" as="geometry">
            <mxPoint x="-90" y="430" as="sourcePoint" />
            <mxPoint x="-100" y="350" as="targetPoint" />
          </mxGeometry>
        </mxCell>
        <mxCell id="enI1zl7nr-y_ysx5LxIe-44" value="" style="endArrow=none;html=1;rounded=0;" parent="1" edge="1">
          <mxGeometry width="50" height="50" relative="1" as="geometry">
            <mxPoint x="-440" y="480" as="sourcePoint" />
            <mxPoint x="-440" y="240" as="targetPoint" />
          </mxGeometry>
        </mxCell>
        <mxCell id="enI1zl7nr-y_ysx5LxIe-45" value="" style="endArrow=none;html=1;rounded=0;entryX=0;entryY=0.5;entryDx=0;entryDy=0;" parent="1" target="enI1zl7nr-y_ysx5LxIe-37" edge="1">
          <mxGeometry width="50" height="50" relative="1" as="geometry">
            <mxPoint x="-440" y="480" as="sourcePoint" />
            <mxPoint x="-420" y="300" as="targetPoint" />
          </mxGeometry>
        </mxCell>
        <mxCell id="enI1zl7nr-y_ysx5LxIe-50" value="" style="endArrow=diamondThin;endFill=1;endSize=24;html=1;rounded=0;" parent="1" edge="1">
          <mxGeometry width="160" relative="1" as="geometry">
            <mxPoint x="280" y="70" as="sourcePoint" />
            <mxPoint x="-420" y="70" as="targetPoint" />
          </mxGeometry>
        </mxCell>
        <mxCell id="-BYsHcXAa0WxptcfwSQ--2" style="edgeStyle=orthogonalEdgeStyle;rounded=0;orthogonalLoop=1;jettySize=auto;html=1;exitX=0.5;exitY=0;exitDx=0;exitDy=0;entryX=0.5;entryY=1;entryDx=0;entryDy=0;" edge="1" parent="1" source="-BYsHcXAa0WxptcfwSQ--1" target="enI1zl7nr-y_ysx5LxIe-10">
          <mxGeometry relative="1" as="geometry" />
        </mxCell>
        <mxCell id="-BYsHcXAa0WxptcfwSQ--1" value="Πληροφορία" style="swimlane;whiteSpace=wrap;html=1;" vertex="1" parent="1">
          <mxGeometry x="820" y="180" width="183" height="90" as="geometry" />
        </mxCell>
        <mxCell id="-BYsHcXAa0WxptcfwSQ--4" value="Λίστα επιθυμιών" style="swimlane;whiteSpace=wrap;html=1;" vertex="1" parent="1">
          <mxGeometry x="190" y="560" width="183" height="90" as="geometry" />
        </mxCell>
        <mxCell id="-BYsHcXAa0WxptcfwSQ--10" value="" style="endArrow=none;html=1;rounded=0;exitX=0.5;exitY=0;exitDx=0;exitDy=0;entryX=0.5;entryY=1;entryDx=0;entryDy=0;" edge="1" parent="1" source="enI1zl7nr-y_ysx5LxIe-16" target="enI1zl7nr-y_ysx5LxIe-2">
          <mxGeometry width="50" height="50" relative="1" as="geometry">
            <mxPoint x="-540" y="280" as="sourcePoint" />
            <mxPoint x="-490" y="230" as="targetPoint" />
          </mxGeometry>
        </mxCell>
        <mxCell id="-BYsHcXAa0WxptcfwSQ--11" value="" style="endArrow=none;html=1;rounded=0;" edge="1" parent="1">
          <mxGeometry width="50" height="50" relative="1" as="geometry">
            <mxPoint x="-640" y="320" as="sourcePoint" />
            <mxPoint x="-440" y="320" as="targetPoint" />
          </mxGeometry>
        </mxCell>
        <mxCell id="-BYsHcXAa0WxptcfwSQ--12" value="" style="endArrow=none;html=1;rounded=0;" edge="1" parent="1">
          <mxGeometry width="50" height="50" relative="1" as="geometry">
            <mxPoint x="-640" y="240" as="sourcePoint" />
            <mxPoint x="-640" y="320" as="targetPoint" />
          </mxGeometry>
        </mxCell>
        <mxCell id="-BYsHcXAa0WxptcfwSQ--13" value="" style="endArrow=none;html=1;rounded=0;" edge="1" parent="1">
          <mxGeometry width="50" height="50" relative="1" as="geometry">
            <mxPoint x="-320" y="320" as="sourcePoint" />
            <mxPoint x="-140" y="320" as="targetPoint" />
          </mxGeometry>
        </mxCell>
        <mxCell id="-BYsHcXAa0WxptcfwSQ--14" value="" style="endArrow=none;html=1;rounded=0;" edge="1" parent="1">
          <mxGeometry width="50" height="50" relative="1" as="geometry">
            <mxPoint x="-320" y="320" as="sourcePoint" />
            <mxPoint x="-320" y="240" as="targetPoint" />
          </mxGeometry>
        </mxCell>
        <mxCell id="-BYsHcXAa0WxptcfwSQ--15" value="" style="endArrow=none;html=1;rounded=0;" edge="1" parent="1">
          <mxGeometry width="50" height="50" relative="1" as="geometry">
            <mxPoint x="200" y="480" as="sourcePoint" />
            <mxPoint x="520" y="480" as="targetPoint" />
          </mxGeometry>
        </mxCell>
        <mxCell id="-BYsHcXAa0WxptcfwSQ--16" value="" style="endArrow=none;html=1;rounded=0;" edge="1" parent="1">
          <mxGeometry width="50" height="50" relative="1" as="geometry">
            <mxPoint x="280" y="560" as="sourcePoint" />
            <mxPoint x="280" y="480" as="targetPoint" />
          </mxGeometry>
        </mxCell>
        <mxCell id="-BYsHcXAa0WxptcfwSQ--17" value="" style="endArrow=none;html=1;rounded=0;exitX=0.5;exitY=0;exitDx=0;exitDy=0;" edge="1" parent="1" source="enI1zl7nr-y_ysx5LxIe-17">
          <mxGeometry width="50" height="50" relative="1" as="geometry">
            <mxPoint x="260" y="490" as="sourcePoint" />
            <mxPoint x="480" y="480" as="targetPoint" />
          </mxGeometry>
        </mxCell>
      </root>
    </mxGraphModel>
  </diagram>
</mxfile>
